solid exported
	facet normal 1 0 0
		outer loop
			vertex 0.20000000298023224 0.30000001192092896 0.30000001192092896
			vertex 0.20000000298023224 -0.30000001192092896 0.30000001192092896
			vertex 0.20000000298023224 0.30000001192092896 -0.30000001192092896
		endloop
	endfacet
	facet normal 1 0 0
		outer loop
			vertex 0.20000000298023224 -0.30000001192092896 0.30000001192092896
			vertex 0.20000000298023224 -0.30000001192092896 -0.30000001192092896
			vertex 0.20000000298023224 0.30000001192092896 -0.30000001192092896
		endloop
	endfacet
	facet normal -1 0 0
		outer loop
			vertex -0.20000000298023224 0.30000001192092896 -0.30000001192092896
			vertex -0.20000000298023224 -0.30000001192092896 -0.30000001192092896
			vertex -0.20000000298023224 0.30000001192092896 0.30000001192092896
		endloop
	endfacet
	facet normal -1 0 0
		outer loop
			vertex -0.20000000298023224 -0.30000001192092896 -0.30000001192092896
			vertex -0.20000000298023224 -0.30000001192092896 0.30000001192092896
			vertex -0.20000000298023224 0.30000001192092896 0.30000001192092896
		endloop
	endfacet
	facet normal 0 1 0
		outer loop
			vertex -0.20000000298023224 0.30000001192092896 -0.30000001192092896
			vertex -0.20000000298023224 0.30000001192092896 0.30000001192092896
			vertex 0.20000000298023224 0.30000001192092896 -0.30000001192092896
		endloop
	endfacet
	facet normal 0 1 0
		outer loop
			vertex -0.20000000298023224 0.30000001192092896 0.30000001192092896
			vertex 0.20000000298023224 0.30000001192092896 0.30000001192092896
			vertex 0.20000000298023224 0.30000001192092896 -0.30000001192092896
		endloop
	endfacet
	facet normal 0 -1 0
		outer loop
			vertex -0.20000000298023224 -0.30000001192092896 0.30000001192092896
			vertex -0.20000000298023224 -0.30000001192092896 -0.30000001192092896
			vertex 0.20000000298023224 -0.30000001192092896 0.30000001192092896
		endloop
	endfacet
	facet normal 0 -1 0
		outer loop
			vertex -0.20000000298023224 -0.30000001192092896 -0.30000001192092896
			vertex 0.20000000298023224 -0.30000001192092896 -0.30000001192092896
			vertex 0.20000000298023224 -0.30000001192092896 0.30000001192092896
		endloop
	endfacet
	facet normal 0 0 1
		outer loop
			vertex -0.20000000298023224 0.30000001192092896 0.30000001192092896
			vertex -0.20000000298023224 -0.30000001192092896 0.30000001192092896
			vertex 0.20000000298023224 0.30000001192092896 0.30000001192092896
		endloop
	endfacet
	facet normal 0 0 1
		outer loop
			vertex -0.20000000298023224 -0.30000001192092896 0.30000001192092896
			vertex 0.20000000298023224 -0.30000001192092896 0.30000001192092896
			vertex 0.20000000298023224 0.30000001192092896 0.30000001192092896
		endloop
	endfacet
	facet normal 0 0 -1
		outer loop
			vertex 0.20000000298023224 0.30000001192092896 -0.30000001192092896
			vertex 0.20000000298023224 -0.30000001192092896 -0.30000001192092896
			vertex -0.20000000298023224 0.30000001192092896 -0.30000001192092896
		endloop
	endfacet
	facet normal 0 0 -1
		outer loop
			vertex 0.20000000298023224 -0.30000001192092896 -0.30000001192092896
			vertex -0.20000000298023224 -0.30000001192092896 -0.30000001192092896
			vertex -0.20000000298023224 0.30000001192092896 -0.30000001192092896
		endloop
	endfacet
endsolid exported
